<svg xmlns="http://www.w3.org/2000/svg" viewBox="0 0 100 100">
  <defs>
    <linearGradient id="bg" x1="0%" y1="0%" x2="100%" y2="100%">
      <stop offset="0%" stop-color="#0369a1"/>
      <stop offset="100%" stop-color="#075985"/>
    </linearGradient>
  </defs>
  <circle cx="50" cy="50" r="50" fill="url(#bg)"/>
  <!-- Trophy -->
  <rect x="42" y="62" width="16" height="6" rx="2" fill="#fbbf24"/>
  <rect x="36" y="66" width="28" height="5" rx="2.5" fill="#f59e0b"/>
  <path d="M34,24 L34,52 Q34,66 50,66 Q66,66 66,52 L66,24 Z" fill="#fbbf24" stroke="#f59e0b" stroke-width="1.5"/>
  <!-- Handles -->
  <path d="M34,32 Q22,32 22,44 Q22,54 34,52" fill="none" stroke="#fbbf24" stroke-width="3.5" stroke-linecap="round"/>
  <path d="M66,32 Q78,32 78,44 Q78,54 66,52" fill="none" stroke="#fbbf24" stroke-width="3.5" stroke-linecap="round"/>
  <!-- Star inside -->
  <polygon points="50,32 52.5,39.5 60.5,39.5 54,44.5 56.5,52 50,47 43.5,52 46,44.5 39.5,39.5 47.5,39.5" fill="#fff8dc" opacity=".9"/>
  <text x="50" y="82" text-anchor="middle" font-family="Arial Black,sans-serif" font-size="7" font-weight="900" fill="#e0f2fe" letter-spacing="1">KOCC</text>
</svg>
